<?xml version="1.0" encoding="UTF-8"?>
<svg version="1.1" xmlns="http://www.w3.org/2000/svg" width="557" height="448">
<path d="M0 0 C183.81 0 367.62 0 557 0 C557 147.84 557 295.68 557 448 C373.19 448 189.38 448 0 448 C0 300.16 0 152.32 0 0 Z " fill="#FEFEFE" transform="translate(0,0)"/>
<path d="M0 0 C0.10546143 0.85005615 0.21092285 1.7001123 0.31958008 2.57592773 C2.56084036 28.3051901 2.56084036 28.3051901 9 53 C9 53.99 9 54.98 9 56 C12.57578208 54.01122233 15.6715973 51.69813369 18.80908203 49.07788086 C27.96322662 41.43876074 37.8163699 35.16653118 48 29 C49.28583984 28.20335937 49.28583984 28.20335937 50.59765625 27.390625 C53.76629486 25.55642119 57.03069443 23.93143395 60.3125 22.3125 C61.28026367 21.83200195 61.28026367 21.83200195 62.26757812 21.34179688 C63.84413905 20.55935553 65.42194285 19.7794193 67 19 C66.05156668 23.80986706 65.09486789 28.61559672 64.03515625 33.40234375 C57.74873698 62.34347439 56.78655673 91.50542344 57 121 C56.01 121 55.02 121 54 121 C54.495 125.455 54.495 125.455 55 130 C55.33 130 55.66 130 56 130 C56.20650776 135.05944018 55.94160246 139.28467974 54 144 C52.35636866 144.72159424 50.68949614 145.39351421 49 146 C48.65853498 147.66501968 48.3271713 149.33211276 48 151 C44.08560522 159.19510993 39.11661321 166.42102546 33.43139648 173.45996094 C24.69478846 184.27771259 16.06353726 195.42992733 10 208 C9.00615853 205.40763039 8.88779842 204.29221194 9.8984375 201.66015625 C13.83901935 194.72765115 18.2015567 188.16206117 22.81787109 181.66601562 C37.37707187 161.14722461 50.07964192 143.01552062 48 117 C47.4044351 113.72904587 46.41958406 110.99497613 45 108 C44.68289063 107.21753906 44.36578125 106.43507813 44.0390625 105.62890625 C41.20592408 99.18904197 37.13932872 94.74761538 32.31640625 89.6875 C29.03703487 85.88276558 26 81.18942648 26 76 C25.01 76 24.02 76 23 76 C21.9742741 80.41062136 21.96315288 82.92630576 24 87 C22.68 87.33 21.36 87.66 20 88 C20 88.66 20 89.32 20 90 C20.639375 90.103125 21.27875 90.20625 21.9375 90.3125 C22.618125 90.539375 23.29875 90.76625 24 91 C25 94 25 94 25 96 C25.32852082 98.55936559 25.32852082 98.55936559 26 101 C26.66 101.33 27.32 101.66 28 102 C27.98839844 102.90621094 27.97679687 103.81242187 27.96484375 104.74609375 C27.87818323 112.86211099 27.87818323 112.86211099 28.5625 120.9375 C29.08982728 124.84851064 28.74106296 128.13000457 28 132 C28.99 132.33 29.98 132.66 31 133 C31 135.97 31 138.94 31 142 C28.69 142.99 26.38 143.98 24 145 C24.061875 145.94875 24.12375 146.8975 24.1875 147.875 C24.0946875 149.421875 24.0946875 149.421875 24 151 C23.01 151.66 22.02 152.32 21 153 C20.5359375 154.7015625 20.5359375 154.7015625 20.0625 156.4375 C18.94838572 160.17305965 18.30077292 161.12956201 15 163 C15.33 163.99 15.66 164.98 16 166 C15.67 166.66 15.34 167.32 15 168 C13.33388095 168.042721 11.66617115 168.04063832 10 168 C9.67 167.67 9.34 167.34 9 167 C8.67 167.99 8.34 168.98 8 170 C8.33 170.66 8.66 171.32 9 172 C9.039992 173.99960012 9.04346799 176.00047242 9 178 C7.02 178.99 7.02 178.99 5 180 C5.2475 180.721875 5.495 181.44375 5.75 182.1875 C6.09324291 186.0489827 4.38569687 187.09243194 2 190 C2.185625 190.66 2.37125 191.32 2.5625 192 C2.7790625 192.99 2.7790625 192.99 3 194 C0.6875 196.75 0.6875 196.75 -2 199 C-2.66 199 -3.32 199 -4 199 C-4 199.99 -4 200.98 -4 202 C-4.721875 202.0825 -5.44375 202.165 -6.1875 202.25 C-10.40560818 203.37482885 -12.96614827 205.96614827 -16 209 C-19.02458953 209.9731055 -21.83541062 210.28237672 -25 210 C-27.76533193 208.5122616 -29.62945388 206.46900085 -31.6875 204.125 C-32.24493896 203.52872803 -32.80237793 202.93245605 -33.37670898 202.31811523 C-37.45156378 197.87102374 -40.95072599 193.20786662 -44 188 C-46.37741457 183.86876473 -46.37741457 183.86876473 -50 181 C-50.103125 182.0725 -50.20625 183.145 -50.3125 184.25 C-51.0099734 189.95287077 -52.53076782 195.45572761 -54 201 C-54.33 201 -54.66 201 -55 201 C-55.21957205 195.48630186 -54.98258273 190.31380298 -54 184.875 C-52.563025 176.71131594 -52.59208035 171.17248929 -55.9921875 163.46875 C-56.9460479 161.13216174 -57.5081923 158.96798046 -58 156.5 C-58.59175328 152.9852252 -58.59175328 152.9852252 -60.8125 151.8125 C-61.534375 151.544375 -62.25625 151.27625 -63 151 C-69.79575597 144.68965517 -69.79575597 144.68965517 -70.30078125 140.51171875 C-70.32407632 134.89760712 -70.20917569 130.81376354 -67 126 C-65.98292969 124.97712891 -65.98292969 124.97712891 -64.9453125 123.93359375 C-62.22057836 119.82460713 -62.33987333 116.26928191 -62.125 111.4375 C-60.12913202 83.80997975 -46.77232801 56.81918807 -30.38793945 34.81738281 C-28.03356338 31.61494754 -26.20361112 28.5723594 -24.75 24.875 C-23.07126465 20.63561304 -20.86800106 19.48135917 -17 17 C-14.62793534 14.30853705 -12.41396076 11.51661667 -10.18359375 8.70703125 C-3.16017316 0 -3.16017316 0 0 0 Z " fill="#F1E4FC" transform="translate(279,55)"/>
<path d="M0 0 C3 1 3 1 4.2890625 3.37109375 C4.72992188 4.38300781 5.17078125 5.39492187 5.625 6.4375 C8.32393119 12.1194604 11.56409658 16.27008822 15.94921875 20.74609375 C19.29075428 24.41860041 21.3144217 28.36465967 23 33 C23.26039063 33.5671875 23.52078125 34.134375 23.7890625 34.71875 C28.17475871 45.37558192 27.28255928 59.43828286 23 70 C18.32455613 80.74893713 12.37240012 90.18927888 5.60058594 99.71923828 C2.49762761 104.1408119 -0.49804923 108.63452684 -3.5 113.125 C-4.0995752 114.01405029 -4.69915039 114.90310059 -5.31689453 115.8190918 C-11.05790368 123.91669457 -11.05790368 123.91669457 -13.5625 133.3125 C-13.706875 134.529375 -13.85125 135.74625 -14 137 C-14.66 137.33 -15.32 137.66 -16 138 C-15.67 135.69 -15.34 133.38 -15 131 C-15.81082031 131.2165625 -16.62164062 131.433125 -17.45703125 131.65625 C-24.79617514 133.50171575 -31.43972437 134.40907303 -39 134 C-37.07423885 131.56070254 -35.19909405 129.19909405 -33 127 C-29.875 126.875 -29.875 126.875 -27 127 C-27 126.01 -27 125.02 -27 124 C-26.38125 123.95875 -25.7625 123.9175 -25.125 123.875 C-22.67200118 123.14787007 -22.67200118 123.14787007 -21.6875 120.125 C-20.71811724 116.99118513 -20.71811724 116.99118513 -22 114 C-20.67189785 112.32916181 -19.33827304 110.66270287 -18 109 C-18 107.68 -18 106.36 -18 105 C-16.515 104.01 -16.515 104.01 -15 103 C-14.70928519 99.58410104 -14.91280756 97.26157733 -16 94 C-15.34 93.01 -14.68 92.02 -14 91 C-12.35 91.33 -10.7 91.66 -9 92 C-8.67 91.34 -8.34 90.68 -8 90 C-8.33 89.01 -8.66 88.02 -9 87 C-8.21625 86.649375 -7.4325 86.29875 -6.625 85.9375 C-3.16155069 83.38114456 -2.9844655 81.08931823 -2 77 C-1.34 76.67 -0.68 76.34 0 76 C0 74.02 0 72.04 0 70 C5.75 67 5.75 67 8 67 C7.505 63.04 7.505 63.04 7 59 C6.01 58.67 5.02 58.34 4 58 C3.91912656 54.68418913 4.0525725 51.66119944 4.5625 48.375 C5.19433926 45.24350238 5.19433926 45.24350238 4.5 43.2421875 C3.77877408 40.00794002 4.1631646 37.04202481 4.4375 33.75 C4.53933594 32.48671875 4.64117187 31.2234375 4.74609375 29.921875 C4.82988281 28.95765625 4.91367187 27.9934375 5 27 C3.02 26.67 1.04 26.34 -1 26 C-0.01 25.67 0.98 25.34 2 25 C1.42655063 22.13275314 1.1385485 21.1385485 -1 19 C-0.34 18.67 0.32 18.34 1 18 C0.505 17.01 0.505 17.01 0 16 C-0.99 15.67 -1.98 15.34 -3 15 C-3 14.34 -3 13.68 -3 13 C-2.01 12.34 -1.02 11.68 0 11 C-0.37125 10.29875 -0.7425 9.5975 -1.125 8.875 C-2.23265459 5.23556349 -1.44125409 3.44299589 0 0 Z " fill="#F4EAFC" transform="translate(302,130)"/>
<path d="M0 0 C0.33 0 0.66 0 1 0 C1.4363934 8.63089169 1.36120493 14.50417902 -3 22 C-3.67154684 24.71658257 -3.67154684 24.71658257 -3 27 C-2.34386719 27.41636719 -1.68773437 27.83273438 -1.01171875 28.26171875 C1 30 1 30 1.57421875 32.8125 C1.63029297 34.3903125 1.63029297 34.3903125 1.6875 36 C1.82982705 39.31825361 1.94619052 41.83857157 3 45 C6.3 45.33 9.6 45.66 13 46 C12.01 48.31 11.02 50.62 10 53 C12.97 53.33 15.94 53.66 19 54 C19 54.33 19 54.66 19 55 C18.09757568 55.0093457 17.19515137 55.01869141 16.26538086 55.02832031 C12.88962422 55.0725584 9.51509714 55.13426864 6.13989258 55.20751953 C4.6842804 55.23559586 3.22851954 55.25687632 1.77270508 55.27099609 C-9.33645989 55.17120972 -9.33645989 55.17120972 -19 60 C-20.85758514 62.66523085 -21 63.70947183 -21 67 C-20.01 66.01 -19.02 65.02 -18 64 C-18.33 65.65 -18.66 67.3 -19 69 C-19.66 69 -20.32 69 -21 69 C-21.33 70.32 -21.66 71.64 -22 73 C-22.99 73 -23.98 73 -25 73 C-24.67 74.98 -24.34 76.96 -24 79 C-24.99 79 -25.98 79 -27 79 C-28.32232429 80.43896236 -28.32232429 80.43896236 -29.4375 82.3125 C-31.28903059 85.22728578 -33.15187256 87.0347316 -36 89 C-37.26891519 57.13612978 -19.4518915 25.77926426 -1 1 C-0.67 0.67 -0.34 0.34 0 0 Z " fill="#EFDEFB" transform="translate(253,84)"/>
<path d="M0 0 C4.39063739 2.15540381 7.47901962 4.79836603 10 9 C11.51923438 14.43178319 11.27457795 19.11255586 9.015625 24.27734375 C6.54440478 28.46891344 2.57755178 30.72254369 -2 32 C-7.30369565 32.51326087 -10.95576385 32.27901032 -15.45703125 29.3125 C-19.16463023 26.15869428 -20.6838267 23.02529877 -21.4140625 18.34765625 C-21.70937273 12.68236257 -21.17139078 8.7248129 -17.40234375 4.37109375 C-12.24413223 -0.67217156 -6.98095116 -0.92394942 0 0 Z " fill="#FCFBFD" transform="translate(157,356)"/>
<path d="M0 0 C-2.09685223 19.4037072 -10.92304167 35.65559787 -25 49 C-27.88195553 51.24603107 -30.8507805 53.15580726 -34 55 C-35.15094486 55.76318018 -36.29742588 56.53317397 -37.4375 57.3125 C-40 59 -40 59 -42 60 C-38.11404932 49.6073412 -30.30513416 40.97377723 -23.64941406 32.22460938 C-12.67270969 18.05217106 -12.67270969 18.05217106 -5 2 C-2 0 -2 0 0 0 Z " fill="#F5ECFB" transform="translate(333,199)"/>
<path d="M0 0 C0.33 0 0.66 0 1 0 C1.12375 0.73863281 1.2475 1.47726563 1.375 2.23828125 C3.51677806 12.77315208 8.56911902 19.82246833 16.25 27.1875 C19.97800978 30.78419045 22.14919698 34.1807593 24 39 C24.29777344 39.72574219 24.59554687 40.45148438 24.90234375 41.19921875 C29.7614997 54.7466351 27.23022404 69.9796568 21.75 82.9609375 C16.10056794 93.90671211 8.06502039 103.67584113 0.54882812 113.38183594 C-5.77608989 121.56613951 -11.23147499 129.81229246 -16 139 C-16.99384147 136.40763039 -17.11220158 135.29221194 -16.1015625 132.66015625 C-12.16098065 125.72765115 -7.7984433 119.16206117 -3.18212891 112.66601562 C11.37707187 92.14722461 24.07964192 74.01552062 22 48 C21.4044351 44.72904587 20.41958406 41.99497613 19 39 C18.68289063 38.21753906 18.36578125 37.43507812 18.0390625 36.62890625 C15.73434775 31.3901752 12.8773426 27.59171638 8.9375 23.4375 C3.26171887 17.42337126 -0.17122077 12.35374772 -0.25 3.9375 C-0.1675 2.638125 -0.085 1.33875 0 0 Z " fill="#6B319E" transform="translate(305,124)"/>
<path d="M0 0 C13 0 13 0 17 3 C17.86877828 9.84162896 17.86877828 9.84162896 15.125 13.5 C13 15 13 15 11 15 C13.80573786 21.07909871 17.24315961 27.24315961 22 32 C18.78111519 31.7317596 17.34120227 31.3522088 15.0625 29 C13.85949712 27.25017763 12.67171613 25.4893362 11.5234375 23.703125 C11.00007813 22.89359375 10.47671875 22.0840625 9.9375 21.25 C9.45152344 20.47140625 8.96554688 19.6928125 8.46484375 18.890625 C7.05536118 16.70942669 7.05536118 16.70942669 4 16 C4.33 21.28 4.66 26.56 5 32 C3.35 32 1.7 32 0 32 C0 21.44 0 10.88 0 0 Z " fill="#7848A8" transform="translate(246,356)"/>
<path d="M0 0 C4.29 0 8.58 0 13 0 C17 5 17 5 17 8.0625 C15.87937981 11.35432182 14.71498815 12.86091843 12 15 C11.34 15 10.68 15 10 15 C11.45802177 17.27103391 12.91640492 19.54183435 14.375 21.8125 C14.99375 22.77639648 14.99375 22.77639648 15.625 23.75976562 C17.39814492 26.51957989 19.18035138 29.27052708 21 32 C18.8203125 31.96875 18.8203125 31.96875 16 31 C13.97010543 28.70361514 12.44863344 26.12272241 10.875 23.5 C10.02569398 22.10999465 9.16921758 20.72433804 8.3046875 19.34375 C7.93327637 18.72693359 7.56186523 18.11011719 7.17919922 17.47460938 C5.96937733 15.687892 5.96937733 15.687892 3 15 C3.33 20.28 3.66 25.56 4 31 C2.68 31 1.36 31 0 31 C0 20.77 0 10.54 0 0 Z " fill="#7546A4" transform="translate(251,293)"/>
<path d="M0 0 C11 0 11 0 14.1875 1.5625 C16 4 16 4 16.5625 7.5 C16 11 16 11 14.5 13.375 C10.9849369 15.65979101 8.1654919 15.72230054 4 16 C4.33 21.28 4.66 26.56 5 32 C3.35 32 1.7 32 0 32 C0 21.44 0 10.88 0 0 Z " fill="#7037A2" transform="translate(115,356)"/>
<path d="M0 0 C1.32 0 2.64 0 4 0 C4 4.62 4 9.24 4 14 C9.28 14 14.56 14 20 14 C19.67 9.38 19.34 4.76 19 0 C20.32 0 21.64 0 23 0 C23 10.56 23 21.12 23 32 C21.35 32 19.7 32 18 32 C18.33 26.39 18.66 20.78 19 15 C14.05 15 9.1 15 4 15 C4 20.61 4 26.22 4 32 C2.68 32 1.36 32 0 32 C0 21.44 0 10.88 0 0 Z " fill="#8457B1" transform="translate(339,356)"/>
<path d="M0 0 C4.39063739 2.15540381 7.47901962 4.79836603 10 9 C11.51923438 14.43178319 11.27457795 19.11255586 9.015625 24.27734375 C6.54440478 28.46891344 2.57755178 30.72254369 -2 32 C-7.30369565 32.51326087 -10.95576385 32.27901032 -15.45703125 29.3125 C-19.16463023 26.15869428 -20.6838267 23.02529877 -21.4140625 18.34765625 C-21.70937273 12.68236257 -21.17139078 8.7248129 -17.40234375 4.37109375 C-12.24413223 -0.67217156 -6.98095116 -0.92394942 0 0 Z M-16.63671875 6.77734375 C-19.27278454 11.07511291 -18.59180647 16.14198429 -18 21 C-15.9903375 25.09109867 -13.81514462 27.56905045 -10 30 C-5.96537972 30.79893471 -1.80396343 30.92775262 1.9140625 29.015625 C4.71092034 26.78364978 7.01440688 24.44957592 8 21 C8.48001637 15.14380025 7.92847448 11.25105768 5 6 C1.56108421 2.15650588 -1.78926632 1.18947429 -6.78515625 0.83203125 C-11.1578721 1.16364815 -13.78223251 3.67760333 -16.63671875 6.77734375 Z " fill="#672EA0" transform="translate(157,356)"/>
<path d="M0 0 C1.32 0 2.64 0 4 0 C4 4.62 4 9.24 4 14 C8.95 14 13.9 14 19 14 C19 9.38 19 4.76 19 0 C20.32 0.33 21.64 0.66 23 1 C22.67 10.9 22.34 20.8 22 31 C21.01 31 20.02 31 19 31 C19 25.72 19 20.44 19 15 C14.05 15 9.1 15 4 15 C4 20.61 4 26.22 4 32 C2.68 32 1.36 32 0 32 C0 21.44 0 10.88 0 0 Z " fill="#6B32A0" transform="translate(321,293)"/>
<path d="M0 0 C0.66 0 1.32 0 2 0 C2.32798584 0.86802246 2.65597168 1.73604492 2.99389648 2.63037109 C4.21000997 5.8473265 5.42706939 9.06392067 6.64477539 12.28027344 C7.17184887 13.67303304 7.69854366 15.06593602 8.22485352 16.45898438 C8.98094015 18.46001291 9.73838223 20.46052377 10.49609375 22.4609375 C10.95169678 23.66540527 11.4072998 24.86987305 11.87670898 26.11083984 C12.90399873 28.88525128 12.90399873 28.88525128 14 31 C12.02 31 10.04 31 8 31 C5.88838269 21.58997722 5.88838269 21.58997722 5 17 C1.7 17 -1.6 17 -5 17 C-5.12375 17.825 -5.2475 18.65 -5.375 19.5 C-6.07102155 23.39772067 -7.00880949 27.16739669 -8 31 C-9.32 30.67 -10.64 30.34 -12 30 C-11.72027344 29.34257812 -11.44054687 28.68515625 -11.15234375 28.0078125 C-7.24821858 18.74336112 -3.61640435 9.37972311 0 0 Z " fill="#A285BE" transform="translate(187,294)"/>
<path d="M0 0 C1.32 0 2.64 0 4 0 C4 4.29 4 8.58 4 13 C8.82097629 8.91442687 13.11378628 4.97921133 17 0 C17.99 0.33 18.98 0.66 20 1 C19.26652344 1.66386719 18.53304688 2.32773437 17.77734375 3.01171875 C16.84019531 3.89472656 15.90304687 4.77773438 14.9375 5.6875 C13.52791016 6.99267578 13.52791016 6.99267578 12.08984375 8.32421875 C9.78395476 10.74825677 9.78395476 10.74825677 9.87890625 13.3828125 C11.44319478 17.03463589 13.6194548 20.02335867 16 23.1875 C20.93548387 29.87096774 20.93548387 29.87096774 22 32 C19.82421875 31.97265625 19.82421875 31.97265625 17 31 C14.94900641 28.68303836 13.40621811 26.08244519 11.8125 23.4375 C10.25810552 20.91246743 8.66858297 18.45414592 7 16 C6.34 16 5.68 16 5 16 C5 21.28 5 26.56 5 32 C3.35 32 1.7 32 0 32 C0 21.44 0 10.88 0 0 Z " fill="#7C4EA8" transform="translate(420,356)"/>
<path d="M0 0 C0.66 0 1.32 0 2 0 C0.52334445 4.30691203 -0.95632305 6.19540381 -4 10 C2.6 10 9.2 10 16 10 C16 10.33 16 10.66 16 11 C14.84242188 11.17015625 13.68484375 11.3403125 12.4921875 11.515625 C10.95300202 11.75964221 9.41394606 12.00447736 7.875 12.25 C7.11445313 12.35957031 6.35390625 12.46914062 5.5703125 12.58203125 C0.47521113 13.41657372 -2.77986404 14.86933534 -7 18 C-7.99 18.33 -8.98 18.66 -10 19 C-12.84775404 24.35565266 -13.59537913 30.04620872 -13 36 C-11.79031105 38.7667506 -11.79031105 38.7667506 -10 41 C-9.443125 41.763125 -8.88625 42.52625 -8.3125 43.3125 C-7.879375 43.869375 -7.44625 44.42625 -7 45 C-11.35798421 43.87937549 -13.6285348 41.84778507 -16.05078125 38.1953125 C-18.3788008 32.81116851 -17.7407399 26.99999772 -15.75 21.625 C-13.96798608 18.95197912 -12.00596801 16.50746001 -10 14 C-9.525625 13.01 -9.05125 12.02 -8.5625 11 C-6.81877938 7.6520564 -4.72434754 5.58463741 -2 3 C-1.34 2.01 -0.68 1.02 0 0 Z " fill="#602497" transform="translate(226,162)"/>
<path d="M0 0 C0.33 0 0.66 0 1 0 C2.13699033 10.6795877 3.10915717 19.8738627 -1 30 C-0.34515625 30.51046875 0.3096875 31.0209375 0.984375 31.546875 C3.7247093 34.88201054 3.40756601 36.99571776 3.25 41.25 C3.21390625 42.51328125 3.1778125 43.7765625 3.140625 45.078125 C3.07101562 46.52445313 3.07101562 46.52445313 3 48 C6.63 48.33 10.26 48.66 14 49 C10.78563471 51.14291019 8.82573391 51.30025791 5.03515625 51.4609375 C1.99823223 50.7731121 0.8575805 49.46180449 -1 47 C-1.5016122 43.88582425 -1.50009264 40.92813157 -1.53125 37.77734375 C-1.71877063 34.87249489 -1.71877063 34.87249489 -4 33.265625 C-4.66 32.84796875 -5.32 32.4303125 -6 32 C-6.81242261 28.4456511 -5.74351279 26.42557427 -4.01171875 23.4140625 C-1.64714682 18.79307064 -1.3754426 14.68602763 -1.3125 9.5625 C-1.09115854 1.09115854 -1.09115854 1.09115854 0 0 Z " fill="#7237A5" transform="translate(255,79)"/>
<path d="M0 0 C1.03253906 0.02707031 1.03253906 0.02707031 2.0859375 0.0546875 C3.7662381 0.10136252 5.44581163 0.17309061 7.125 0.25 C6.795 1.57 6.465 2.89 6.125 4.25 C5.135 3.59 4.145 2.93 3.125 2.25 C-2.38247298 1.79856779 -6.23944131 1.90808559 -10.875 5.25 C-13.59620906 9.96676237 -14.55083279 13.84333768 -13.875 19.25 C-12.50346623 22.81893734 -10.6397346 25.57523418 -7.75 28.125 C-3.48978007 29.79204258 0.56525687 29.94601712 5.125 30.25 C4.795 25.3 4.465 20.35 4.125 15.25 C5.775 15.25 7.425 15.25 9.125 15.25 C8.795 20.53 8.465 25.81 8.125 31.25 C1.12109142 33.00097715 -4.73396158 33.12678851 -11.1484375 29.5234375 C-14.42224765 27.10881735 -16.17855774 24.04914251 -17.625 20.3125 C-18.30729806 14.68354102 -18.08462849 10.84758265 -15.3359375 5.92578125 C-10.89862368 0.83592128 -6.51992014 -0.32852311 0 0 Z " fill="#7B4DA8" transform="translate(304.875,292.75)"/>
<path d="M0 0 C-3.625 3 -3.625 3 -7 3 C-7 3.66 -7 4.32 -7 5 C-11.08574839 5.9878858 -14.86258865 6.08363173 -19.05859375 6.03515625 C-20.42774188 6.03886819 -21.79688548 6.04479591 -23.16601562 6.05273438 C-25.30434765 6.06329222 -27.43933679 6.0624671 -29.57739258 6.02416992 C-37.94868302 5.60769158 -37.94868302 5.60769158 -45.30908203 8.84326172 C-46.80989228 10.84184583 -47.98416948 12.72110493 -49 15 C-49.59765625 13.19140625 -49.59765625 13.19140625 -50 11 C-47.48412461 6.06888424 -45.06503134 4.06739805 -40 2 C-36.58422852 1.59936523 -36.58422852 1.59936523 -32.87890625 1.55859375 C-32.21592026 1.54538589 -31.55293427 1.53217804 -30.86985779 1.51856995 C-28.76736203 1.47798361 -26.66529634 1.45610454 -24.5625 1.4375 C-22.46340864 1.41356151 -20.36471308 1.38519667 -18.26585388 1.34571838 C-16.3591209 1.31053518 -14.45212685 1.29044667 -12.54516602 1.27124023 C-8.43962196 0.95712554 -3.66589517 -1.83294759 0 0 Z " fill="#6E35A1" transform="translate(281,137)"/>
<path d="M0 0 C1.65 0 3.3 0 5 0 C4.98952637 0.80743652 4.97905273 1.61487305 4.96826172 2.44677734 C4.92680169 6.08948682 4.90070562 9.73214675 4.875 13.375 C4.85824219 14.64601563 4.84148437 15.91703125 4.82421875 17.2265625 C4.81777344 18.43828125 4.81132812 19.65 4.8046875 20.8984375 C4.79421387 22.01911621 4.78374023 23.13979492 4.77294922 24.29443359 C4.71944677 27.14977843 4.71944677 27.14977843 7 29 C9.1398632 29.318384 9.1398632 29.318384 11.5 29.25 C12.2940625 29.25515625 13.088125 29.2603125 13.90625 29.265625 C16.21892751 29.18939909 16.21892751 29.18939909 18 27 C18.27861397 24.18288521 18.27861397 24.18288521 18.1953125 20.8984375 C18.18886719 19.68671875 18.18242187 18.475 18.17578125 17.2265625 C18.15902344 15.95554687 18.14226562 14.68453125 18.125 13.375 C18.11597656 12.09625 18.10695312 10.8175 18.09765625 9.5 C18.07402303 6.33314833 18.04107629 3.16666576 18 0 C18.99 0 19.98 0 21 0 C21.08729047 4.06236402 21.14048992 8.12448589 21.1875 12.1875 C21.21263672 13.33798828 21.23777344 14.48847656 21.26367188 15.67382812 C21.27333984 16.78564453 21.28300781 17.89746094 21.29296875 19.04296875 C21.3086792 20.06414795 21.32438965 21.08532715 21.34057617 22.13745117 C20.94204934 25.48707631 19.99829227 27.30316765 18 30 C15.00317868 31.99788088 14.05914854 32.35935228 10.625 32.5 C9.87476563 32.5515625 9.12453125 32.603125 8.3515625 32.65625 C5.45911296 31.84905478 3.82232271 30.53895682 2.00390625 28.15722656 C-0.23502518 23.34613753 0.21289352 17.83349229 0.1875 12.625 C0.16236328 11.41199219 0.13722656 10.19898438 0.11132812 8.94921875 C0.0525998 5.9658196 0.0162133 2.98388307 0 0 Z " fill="#733EA4" transform="translate(218,356)"/>
<path d="M0 0 C1.1654589 3.49637671 0.77761011 4.58351177 -0.22265625 8.05859375 C-0.51116455 9.07501953 -0.79967285 10.09144531 -1.09692383 11.13867188 C-1.57488403 12.7715918 -1.57488403 12.7715918 -2.0625 14.4375 C-2.541427 16.11102539 -2.541427 16.11102539 -3.0300293 17.81835938 C-5.29316699 25.68916772 -7.62162327 33.54197838 -10.04516602 41.36499023 C-11.62897799 46.52925491 -12.90208377 51.71124766 -14 57 C-14.33 57 -14.66 57 -15 57 C-15.54935008 48.35282279 -13.86018483 40.41247765 -12 32 C-11.75056641 30.69095703 -11.75056641 30.69095703 -11.49609375 29.35546875 C-10.60087158 24.75031687 -9.14777695 20.78607594 -7.1484375 16.546875 C-5.2428565 12.32089265 -3.67354875 7.96577747 -2.05078125 3.625 C-1 1 -1 1 0 0 Z " fill="#6F38A1" transform="translate(239,199)"/>
<path d="M0 0 C1.61648437 0.04060547 1.61648437 0.04060547 3.265625 0.08203125 C4.08546875 0.11683594 4.9053125 0.15164063 5.75 0.1875 C5.42 1.1775 5.09 2.1675 4.75 3.1875 C2.76432292 2.89453125 0.77864583 2.6015625 -1.20703125 2.30859375 C-3.4525342 2.04845201 -3.4525342 2.04845201 -6.25 3.1875 C-7.01716851 6.03828091 -7.01716851 6.03828091 -7.25 9.1875 C-4.57916288 12.72479598 -0.55705346 14.03565893 3.375 15.80859375 C5.96925183 17.31479588 7.19425601 18.64445693 8.75 21.1875 C9.25 23.625 9.25 23.625 8.75 26.1875 C6.57453396 28.70646068 4.739803 30.6925985 1.75 32.1875 C-6.64097744 32.59351504 -6.64097744 32.59351504 -10.25 30.1875 C-9.92 29.1975 -9.59 28.2075 -9.25 27.1875 C-8.59 27.8475 -7.93 28.5075 -7.25 29.1875 C-4.88197999 29.54435986 -4.88197999 29.54435986 -2.25 29.5 C-1.363125 29.51675781 -0.47625 29.53351563 0.4375 29.55078125 C1.200625 29.43089844 1.96375 29.31101562 2.75 29.1875 C4.89201526 25.97447711 5.40325876 24.92040719 4.75 21.1875 C2.55314244 19.47120503 0.26171129 18.42444025 -2.2578125 17.2578125 C-9.74788907 13.6924255 -9.74788907 13.6924255 -11.25 10.1875 C-11.14319332 4.09951941 -11.14319332 4.09951941 -8.58203125 1.484375 C-5.55743692 -0.19764396 -3.43828443 -0.11211797 0 0 Z " fill="#6B37A1" transform="translate(183.25,355.8125)"/>
<path d="M0 0 C5.94 0 11.88 0 18 0 C18 0.66 18 1.32 18 2 C11.07 1.505 11.07 1.505 4 1 C4 5.29 4 9.58 4 14 C9.445 13.505 9.445 13.505 15 13 C15 13.99 15 14.98 15 16 C11.7 16 8.4 16 5 16 C5 20.62 5 25.24 5 30 C6.753125 30.04125 8.50625 30.0825 10.3125 30.125 C11.79169922 30.15980469 11.79169922 30.15980469 13.30078125 30.1953125 C16.22406527 30.20682639 16.22406527 30.20682639 19 28 C19 29.32 19 30.64 19 32 C12.73 32 6.46 32 0 32 C0 21.44 0 10.88 0 0 Z " fill="#6D3C9B" transform="translate(272,356)"/>
<path d="M0 0 C5.94 0 11.88 0 18 0 C18 0.66 18 1.32 18 2 C11.07 1.505 11.07 1.505 4 1 C4 5.29 4 9.58 4 14 C7.63 14 11.26 14 15 14 C14.67 14.66 14.34 15.32 14 16 C11.03 16 8.06 16 5 16 C5 20.62 5 25.24 5 30 C6.753125 30.04125 8.50625 30.0825 10.3125 30.125 C11.79169922 30.15980469 11.79169922 30.15980469 13.30078125 30.1953125 C16.22406527 30.20682639 16.22406527 30.20682639 19 28 C19 29.32 19 30.64 19 32 C12.73 32 6.46 32 0 32 C0 21.44 0 10.88 0 0 Z " fill="#7544A2" transform="translate(368,356)"/>
<path d="M0 0 C3.69230769 0.69230769 3.69230769 0.69230769 5 2 C5.1875 4.4375 5.1875 4.4375 5 7 C4.34 7.66 3.68 8.32 3 9 C3.020625 9.825 3.04125 10.65 3.0625 11.5 C3.041875 12.325 3.02125 13.15 3 14 C2.01 14.66 1.02 15.32 0 16 C-1.2188121 19.55672179 -1.2188121 19.55672179 -2 23 C-5.375 23.625 -5.375 23.625 -9 24 C-11 22 -11 22 -11.125 19.375 C-11.08375 18.59125 -11.0425 17.8075 -11 17 C-8.34771188 15.92474806 -5.71631546 14.90543849 -3 14 C-3 12.35 -3 10.7 -3 9 C-2.01 8.67 -1.02 8.34 0 8 C-0.2784375 6.2984375 -0.2784375 6.2984375 -0.5625 4.5625 C-0.706875 3.386875 -0.85125 2.21125 -1 1 C-0.67 0.67 -0.34 0.34 0 0 Z " fill="#E5CAF6" transform="translate(300,192)"/>
<path d="M0 0 C1.60875 -0.00386719 1.60875 -0.00386719 3.25 -0.0078125 C6 0.125 6 0.125 8 1.125 C8 2.115 8 3.105 8 4.125 C7.13375 3.795 6.2675 3.465 5.375 3.125 C0.37410587 1.64325359 -2.50327299 1.33261511 -7.1875 3.8125 C-10.0967289 6.20453265 -11.57948342 7.65262614 -13 11.125 C-13.55160058 16.91680612 -12.92954322 19.99829936 -10 25.125 C-10 25.785 -10 26.445 -10 27.125 C-6.31861363 28.8117443 -3.41806576 29.39727584 0.625 29.375 C1.56601562 29.38015625 2.50703125 29.3853125 3.4765625 29.390625 C6.24575221 29.29667307 6.24575221 29.29667307 9 27.125 C8.67 28.445 8.34 29.765 8 31.125 C2.88820786 32.52959153 -2.17645864 33.23159002 -7.22265625 31.25390625 C-12.23753111 28.3949589 -14.82745023 25.46585153 -17 20.125 C-17.893754 14.82411421 -16.98375488 10.60063231 -14 6.125 C-9.44261102 1.6283762 -6.37994031 -0.01533639 0 0 Z " fill="#6C379C" transform="translate(324,355.875)"/>
<path d="M0 0 C1.60875 -0.00386719 1.60875 -0.00386719 3.25 -0.0078125 C6 0.125 6 0.125 8 1.125 C8 2.115 8 3.105 8 4.125 C7.34 4.125 6.68 4.125 6 4.125 C6 3.465 6 2.805 6 2.125 C-0.57149385 1.65746289 -4.74342084 1.65690772 -10 6.125 C-13.10518195 9.23018195 -12.96067459 11.63736497 -13.3125 16 C-13.26408252 20.33336439 -11.74460045 22.7530623 -9 26.125 C-8.58363281 26.66898437 -8.16726563 27.21296875 -7.73828125 27.7734375 C-5.19020207 29.75464064 -3.1818554 29.48819132 0 29.4375 C1.051875 29.43363281 2.10375 29.42976563 3.1875 29.42578125 C6.20527038 29.32259718 6.20527038 29.32259718 9 27.125 C8.67 28.445 8.34 29.765 8 31.125 C2.47292373 32.67558248 -2.79835241 32.88710878 -8.25 31 C-12.43034763 28.14976298 -15.31290388 25.67948006 -16.63671875 20.7578125 C-17.43332337 15.12162068 -17.02607123 11.10337526 -14 6.125 C-9.54192049 1.56021114 -6.32582514 -0.01520631 0 0 Z " fill="#7B4DA9" transform="translate(406,355.875)"/>
<path d="M0 0 C0.66 1.32 1.32 2.64 2 4 C1.319375 4.9075 0.63875 5.815 -0.0625 6.75 C-0.701875 7.8225 -1.34125 8.895 -2 10 C-1.814375 10.680625 -1.62875 11.36125 -1.4375 12.0625 C-1.293125 12.701875 -1.14875 13.34125 -1 14 C-3.3125 16.75 -3.3125 16.75 -6 19 C-6.66 19 -7.32 19 -8 19 C-8 19.99 -8 20.98 -8 22 C-9.32 22 -10.64 22 -12 22 C-12 20.02 -12 18.04 -12 16 C-11.34 16 -10.68 16 -10 16 C-10.020625 15.113125 -10.04125 14.22625 -10.0625 13.3125 C-10.00713781 10.37830369 -9.6694266 7.84506304 -9 5 C-8.01 5 -7.02 5 -6 5 C-5.67 4.01 -5.34 3.02 -5 2 C-3.35 2 -1.7 2 0 2 C0 1.34 0 0.68 0 0 Z " fill="#EFDAFC" transform="translate(283,235)"/>
<path d="M0 0 C1.65 0 3.3 0 5 0 C4.67 9.9 4.34 19.8 4 30 C15.93342525 30.50043567 15.93342525 30.50043567 19 27 C19 28.65 19 30.3 19 32 C12.73 32 6.46 32 0 32 C0 21.44 0 10.88 0 0 Z " fill="#602796" transform="translate(228,293)"/>
<path d="M0 0 C1.32 0 2.64 0 4 0 C4 9.9 4 19.8 4 30 C8.29 30 12.58 30 17 30 C17.33 29.34 17.66 28.68 18 28 C18 29.32 18 30.64 18 32 C12.06 32 6.12 32 0 32 C0 21.44 0 10.88 0 0 Z " fill="#7F4FAC" transform="translate(206,293)"/>
<path d="M0 0 C6.3 -0.48461538 6.3 -0.48461538 9.4375 1.6875 C11 4 11 4 11.5 6.5 C10.81895125 9.90524375 9.8520847 11.02547983 7 13 C3.25 13.25 3.25 13.25 0 13 C0 8.71 0 4.42 0 0 Z " fill="#F6F2F9" transform="translate(254,294)"/>
<path d="M0 0 C6.93 0 13.86 0 21 0 C20.67 0.99 20.34 1.98 20 3 C19.67 2.67 19.34 2.34 19 2 C16.69 1.67 14.38 1.34 12 1 C12.33 11.23 12.66 21.46 13 32 C11.35 32 9.7 32 8 32 C8.33 21.77 8.66 11.54 9 1 C4.545 1.495 4.545 1.495 0 2 C0 1.34 0 0.68 0 0 Z " fill="#723EA6" transform="translate(193,356)"/>
<path d="M0 0 C0.66 0 1.32 0 2 0 C2.33 4.95 2.66 9.9 3 15 C-1 17 -1 17 -2 17 C-3.0257259 21.41062136 -3.03684712 23.92630576 -1 28 C-3.375 27.75 -3.375 27.75 -6 27 C-7.375 25.125 -7.375 25.125 -8 23 C-7.505 21.515 -7.505 21.515 -7 20 C-6.37411079 17.21827017 -6 14.86273993 -6 12 C-4.35 11.67 -2.7 11.34 -1 11 C-1 10.01 -1 9.02 -1 8 C-2.32 8 -3.64 8 -5 8 C-5 7.01 -5 6.02 -5 5 C-3.35 5 -1.7 5 0 5 C0 3.35 0 1.7 0 0 Z " fill="#C1ACD7" transform="translate(304,114)"/>
<path d="M0 0 C6.93 0 13.86 0 21 0 C20.67 0.99 20.34 1.98 20 3 C19.67 2.67 19.34 2.34 19 2 C16.69 1.67 14.38 1.34 12 1 C12 10.9 12 20.8 12 31 C11.01 31 10.02 31 9 31 C9 21.1 9 11.2 9 1 C4.545 1.495 4.545 1.495 0 2 C0 1.34 0 0.68 0 0 Z " fill="#733CA8" transform="translate(348,293)"/>
<path d="M0 0 C7.75 0.75 7.75 0.75 10 3 C10.54587156 9.00458716 10.54587156 9.00458716 8.9375 11.9375 C5.98831309 13.55479605 3.29132441 13.18630138 0 13 C0 8.71 0 4.42 0 0 Z " fill="#FBFAFD" transform="translate(250,357)"/>
<path d="M0 0 C6 1 6 1 7.875 2.125 C9.71653772 5.19422953 9.49664155 7.52350913 9 11 C5.78102913 13.77189158 4.3064427 14 0 14 C0 9.38 0 4.76 0 0 Z " fill="#FAF8FC" transform="translate(119,357)"/>
<path d="M0 0 C0.66 0 1.32 0 2 0 C2.32798584 0.86802246 2.65597168 1.73604492 2.99389648 2.63037109 C4.21000997 5.8473265 5.42706939 9.06392067 6.64477539 12.28027344 C7.17184887 13.67303304 7.69854366 15.06593602 8.22485352 16.45898438 C8.98094015 18.46001291 9.73838223 20.46052377 10.49609375 22.4609375 C10.95169678 23.66540527 11.4072998 24.86987305 11.87670898 26.11083984 C12.90399873 28.88525128 12.90399873 28.88525128 14 31 C12.02 31 10.04 31 8 31 C7.5978125 29.081875 7.5978125 29.081875 7.1875 27.125 C5.59314094 19.94473045 3.37960182 12.95575917 1 6 C0.34 6 -0.32 6 -1 6 C-0.67 4.02 -0.34 2.04 0 0 Z " fill="#7137A8" transform="translate(187,294)"/>
<path d="M0 0 C1.32 0 2.64 0 4 0 C4 10.56 4 21.12 4 32 C2.68 32 1.36 32 0 32 C0 21.44 0 10.88 0 0 Z " fill="#682D9C" transform="translate(339,356)"/>
<path d="M0 0 C0.33 0.66 0.66 1.32 1 2 C1.66 2.33 2.32 2.66 3 3 C2.03900391 4.23363281 2.03900391 4.23363281 1.05859375 5.4921875 C-6.78940618 15.60204311 -14.08473504 25.60282282 -20 37 C-20.99384147 34.40763039 -21.11220158 33.29221194 -20.1015625 30.66015625 C-16.45124476 24.23830097 -12.45609513 18.12994306 -8.19140625 12.10546875 C-5.38077426 8.12248759 -2.68195217 4.07025682 0 0 Z " fill="#6E379C" transform="translate(309,226)"/>
<path d="M0 0 C1.65 0.33 3.3 0.66 5 1 C4.01 2.485 4.01 2.485 3 4 C2.34 4 1.68 4 1 4 C-1.27806284 9.85787588 -2.63039728 14.69602715 -2 21 C-0.79031105 23.7667506 -0.79031105 23.7667506 1 26 C1.556875 26.763125 2.11375 27.52625 2.6875 28.3125 C3.120625 28.869375 3.55375 29.42625 4 30 C-0.35798421 28.87937549 -2.6285348 26.84778507 -5.05078125 23.1953125 C-7.39424021 17.77546091 -6.74461677 11.95018678 -4.6875 6.5625 C-3.19877948 4.30185031 -1.70088526 2.10585794 0 0 Z " fill="#6C34A4" transform="translate(215,177)"/>
<path d="M0 0 C1.32 0 2.64 0 4 0 C4 10.23 4 20.46 4 31 C2.68 30.67 1.36 30.34 0 30 C0 20.1 0 10.2 0 0 Z " fill="#6F3D9F" transform="translate(277,293)"/>
<path d="M0 0 C0.99 0 1.98 0 3 0 C3.83360594 10.36053092 4.12288464 20.6094206 4 31 C2.68 31 1.36 31 0 31 C0 20.77 0 10.54 0 0 Z " fill="#69359B" transform="translate(251,293)"/>
<path d="M0 0 C2.00720923 0.28674418 4.0085944 0.61866701 6 1 C5.35812082 6.13503344 4.31727753 10.9943454 3 16 C1.68 16 0.36 16 -1 16 C-2.125 10.375 -2.125 10.375 -1 7 C-1 5.96875 -1 4.9375 -1 3.875 C-1 1 -1 1 0 0 Z " fill="#E2C7F4" transform="translate(302,174)"/>
<path d="M0 0 C0.66 0 1.32 0 2 0 C2.66 10.23 3.32 20.46 4 31 C2.35 31 0.7 31 -1 31 C-0.67 20.77 -0.34 10.54 0 0 Z " fill="#6E39A1" transform="translate(421,357)"/>
<path d="M0 0 C0.99 0 1.98 0 3 0 C3.08729047 4.06236402 3.14048992 8.12448589 3.1875 12.1875 C3.21263672 13.33798828 3.23777344 14.48847656 3.26367188 15.67382812 C3.27333984 16.78564453 3.28300781 17.89746094 3.29296875 19.04296875 C3.3086792 20.06414795 3.32438965 21.08532715 3.34057617 22.13745117 C2.94204934 25.48707631 1.99829227 27.30316765 0 30 C-3.20380017 32.13586678 -4.01939967 32.23132175 -7.6875 32.125 C-8.49574219 32.10695313 -9.30398437 32.08890625 -10.13671875 32.0703125 C-10.75160156 32.04710937 -11.36648437 32.02390625 -12 32 C-12.33 30.68 -12.66 29.36 -13 28 C-12.34 28.33 -11.68 28.66 -11 29 C-9.50350638 29.12005453 -8.00125207 29.17531451 -6.5 29.1875 C-5.7059375 29.20167969 -4.911875 29.21585937 -4.09375 29.23046875 C-1.77966683 29.19666303 -1.77966683 29.19666303 0 27 C0.27861397 24.18288521 0.27861397 24.18288521 0.1953125 20.8984375 C0.18886719 19.68671875 0.18242187 18.475 0.17578125 17.2265625 C0.15902344 15.95554687 0.14226562 14.68453125 0.125 13.375 C0.11146484 11.456875 0.11146484 11.456875 0.09765625 9.5 C0.07402303 6.33314833 0.04107629 3.16666576 0 0 Z " fill="#9273B0" transform="translate(236,356)"/>
<path d="M0 0 C2.48044315 3.72066472 2.44381173 6.86540474 2.625 11.1875 C2.66367188 11.93708984 2.70234375 12.68667969 2.7421875 13.45898438 C2.83628216 15.30559199 2.91922319 17.1527619 3 19 C-0.84375 17.203125 -0.84375 17.203125 -2.25 15.375 C-3.64939553 10.94358082 -3.74559013 5.36397533 -2 1 C-1.34 0.67 -0.68 0.34 0 0 Z " fill="#FAF9FC" transform="translate(215,185)"/>
<path d="M0 0 C9.74644653 -0.614487 9.74644653 -0.614487 14.1875 1.5625 C16 4 16 4 16.5625 7.5 C16 11 16 11 14.5 13.375 C10.94834115 15.68357825 8.22159866 15.79238039 4 16 C3 15 3 15 2.90234375 11.83984375 C2.91974609 9.90818359 2.91974609 9.90818359 2.9375 7.9375 C2.94652344 6.64714844 2.95554687 5.35679687 2.96484375 4.02734375 C2.97644531 3.02832031 2.98804687 2.02929688 3 1 C2.01 1.33 1.02 1.66 0 2 C0 1.34 0 0.68 0 0 Z M4 1 C4 5.62 4 10.24 4 15 C9.01535052 14.67039784 9.01535052 14.67039784 13 12 C13.47827951 7.36176838 13.47827951 7.36176838 11.875 3.125 C9.490155 1.53832008 9.490155 1.53832008 4 1 Z " fill="#8F68B4" transform="translate(115,356)"/>
<path d="M0 0 C6.93 0 13.86 0 21 0 C21 0.66 21 1.32 21 2 C16.72268218 3.42577261 12.94796872 4.12236446 8.4375 4.375 C3.54566925 4.74255559 0.93651785 5.97895142 -3 9 C-6.375 10.25 -6.375 10.25 -9 11 C-9 11.66 -9 12.32 -9 13 C-9.66 12.67 -10.32 12.34 -11 12 C-5.0691184 5.3277582 1.14204211 2.63271128 10 2 C6.7 1.67 3.4 1.34 0 1 C0 0.67 0 0.34 0 0 Z " fill="#C6A4E2" transform="translate(226,171)"/>
<path d="M0 0 C0.33 0 0.66 0 1 0 C1.12375 0.73863281 1.2475 1.47726563 1.375 2.23828125 C3.41926842 12.29352654 8.08885026 19.47024241 15.5625 26.4375 C16.366875 27.283125 17.17125 28.12875 18 29 C17.65234375 31.16015625 17.65234375 31.16015625 17 33 C-0.43120741 14.44544812 -0.43120741 14.44544812 -0.125 4.1875 C-0.10695313 3.39730469 -0.08890625 2.60710937 -0.0703125 1.79296875 C-0.03550781 0.90544922 -0.03550781 0.90544922 0 0 Z " fill="#7850A2" transform="translate(305,124)"/>
<path d="M0 0 C1.67542976 0.28604898 3.34385343 0.61781233 5 1 C6.125 4.75 6.125 4.75 5 7 C4.01 7.33 3.02 7.66 2 8 C1.67 9.65 1.34 11.3 1 13 C-0.32 13 -1.64 13 -3 13 C-3 11.02 -3 9.04 -3 7 C-2.34 7 -1.68 7 -1 7 C-1.020625 6.030625 -1.04125 5.06125 -1.0625 4.0625 C-1 1 -1 1 0 0 Z " fill="#BA9AD5" transform="translate(274,244)"/>
<path d="M0 0 C5.94 0 11.88 0 18 0 C18 0.66 18 1.32 18 2 C11.07 1.505 11.07 1.505 4 1 C4 5.29 4 9.58 4 14 C9.445 13.505 9.445 13.505 15 13 C15 13.99 15 14.98 15 16 C10.71 16 6.42 16 2 16 C1.93941406 15.01257813 1.87882812 14.02515625 1.81640625 13.0078125 C1.73261719 11.72648437 1.64882813 10.44515625 1.5625 9.125 C1.48128906 7.84882813 1.40007812 6.57265625 1.31640625 5.2578125 C1.20793973 2.11699848 1.20793973 2.11699848 0 0 Z " fill="#703B9F" transform="translate(272,356)"/>
<path d="M0 0 C1.05445313 0.00644531 2.10890625 0.01289063 3.1953125 0.01953125 C5.875 0.1875 5.875 0.1875 7.875 1.1875 C7.875 2.1775 7.875 3.1675 7.875 4.1875 C7.00875 3.8575 6.1425 3.5275 5.25 3.1875 C0.24910587 1.70575359 -2.62827299 1.39511511 -7.3125 3.875 C-11.524979 7.33859384 -13.11507606 10.15622468 -13.8125 15.5 C-13.915625 16.716875 -14.01875 17.93375 -14.125 19.1875 C-14.455 19.1875 -14.785 19.1875 -15.125 19.1875 C-16.97823365 10.81425343 -16.97823365 10.81425343 -14.99609375 7.03515625 C-10.53637284 1.74831918 -6.98789086 -0.09443096 0 0 Z " fill="#7344A0" transform="translate(324.125,355.8125)"/>
<path d="M0 0 C3.69230769 0.69230769 3.69230769 0.69230769 5 2 C5.1875 4.4375 5.1875 4.4375 5 7 C4.34 7.66 3.68 8.32 3 9 C2.30251417 10.31747324 1.63040043 11.64914193 1 13 C-0.32 13 -1.64 13 -3 13 C-2.67 11.35 -2.34 9.7 -2 8 C-1.34 8 -0.68 8 0 8 C-0.2784375 6.2984375 -0.2784375 6.2984375 -0.5625 4.5625 C-0.706875 3.386875 -0.85125 2.21125 -1 1 C-0.67 0.67 -0.34 0.34 0 0 Z " fill="#B696D5" transform="translate(300,192)"/>
<path d="M0 0 C0.33 0 0.66 0 1 0 C1.33 2.97 1.66 5.94 2 9 C2.33 9 2.66 9 3 9 C3.20674844 14.06533667 2.86117261 18.25400985 1 23 C-1.125 24.4375 -1.125 24.4375 -3 25 C-2.85691406 24.03964844 -2.71382813 23.07929688 -2.56640625 22.08984375 C-1.92378812 17.59151684 -1.42886796 13.07944547 -0.9375 8.5625 C-0.84662109 7.73556641 -0.75574219 6.90863281 -0.66210938 6.05664062 C-0.44039482 4.03787124 -0.22005497 2.01895096 0 0 Z " fill="#E8D3F6" transform="translate(332,176)"/>
<path d="M0 0 C0.33 0 0.66 0 1 0 C1 3.96 1 7.92 1 12 C2.753125 11.855625 4.50625 11.71125 6.3125 11.5625 C7.29863281 11.48128906 8.28476562 11.40007812 9.30078125 11.31640625 C12.09375599 11.08187441 12.09375599 11.08187441 15 10 C15.99 10.33 16.98 10.66 18 11 C18 11.66 18 12.32 18 13 C12.54867257 16.09734513 12.54867257 16.09734513 10.0625 15.65625 C9.381875 15.4396875 8.70125 15.223125 8 15 C7.29359375 14.82339844 6.5871875 14.64679688 5.859375 14.46484375 C3.90625 13.9765625 1.953125 13.48828125 0 13 C0 8.71 0 4.42 0 0 Z " fill="#C7A6E1" transform="translate(258,114)"/>
<path d="M0 0 C0.99 0 1.98 0 3 0 C3 0.66 3 1.32 3 2 C3.66 2 4.32 2 5 2 C6.40414141 3.88681502 7.72472938 5.83629939 9 7.8125 C9.70125 8.89144531 10.4025 9.97039062 11.125 11.08203125 C12.053125 12.52642578 12.053125 12.52642578 13 14 C13.99 15.485 13.99 15.485 15 17 C12.83203125 16.96875 12.83203125 16.96875 10 16 C7.90088934 13.71033716 6.31931636 11.13508124 4.6875 8.5 C4.23310547 7.79746094 3.77871094 7.09492188 3.31054688 6.37109375 C0 1.20365367 0 1.20365367 0 0 Z " fill="#6A31A1" transform="translate(257,308)"/>
<path d="M0 0 C0.33 0 0.66 0 1 0 C2.64291702 15.43168483 2.64291702 15.43168483 2 21 C1.34 21.66 0.68 22.32 0 23 C0 22.34 0 21.68 0 21 C-0.66 21 -1.32 21 -2 21 C-1.86179731 17.6871348 -1.71316222 14.37482011 -1.5625 11.0625 C-1.52318359 10.11697266 -1.48386719 9.17144531 -1.44335938 8.19726562 C-1.40146484 7.29814453 -1.35957031 6.39902344 -1.31640625 5.47265625 C-1.27974854 4.64000244 -1.24309082 3.80734863 -1.20532227 2.94946289 C-1 1 -1 1 0 0 Z " fill="#723EA3" transform="translate(255,79)"/>
<path d="M0 0 C0.33 0 0.66 0 1 0 C1.66 10.23 2.32 20.46 3 31 C1.35 31 -0.3 31 -2 31 C-1.67 30.34 -1.34 29.68 -1 29 C-0.84530633 26.82325217 -0.74997894 24.6421652 -0.68359375 22.4609375 C-0.62075195 20.50800781 -0.62075195 20.50800781 -0.55664062 18.515625 C-0.51682701 17.13541955 -0.47711478 15.75521117 -0.4375 14.375 C-0.39430593 12.98696585 -0.35069135 11.59894472 -0.30664062 10.2109375 C-0.20028 6.80739744 -0.09825286 3.40378222 0 0 Z " fill="#64279B" transform="translate(248,357)"/>
<path d="M0 0 C0.66 0.66 1.32 1.32 2 2 C-0.51299637 3.25649819 -1.52431591 2.81777137 -4.25 2.3125 C-8.01011101 1.8341606 -8.87574518 1.936743 -12.4375 3.75 C-16.21567986 7.06742622 -17.24419883 9.30055167 -17.625 14.1875 C-17.69976562 15.08855469 -17.77453125 15.98960937 -17.8515625 16.91796875 C-17.90054688 17.60503906 -17.94953125 18.29210937 -18 19 C-18.33 19 -18.66 19 -19 19 C-19.144375 17.88625 -19.28875 16.7725 -19.4375 15.625 C-19.78372035 12.17857953 -19.78372035 12.17857953 -21 10 C-15.27037388 1.32370902 -10.64406765 -1.31979583 0 0 Z " fill="#8C66B2" transform="translate(157,356)"/>
<path d="M0 0 C1.65 0 3.3 0 5 0 C4.67 5.28 4.34 10.56 4 16 C2.35 16 0.7 16 -1 16 C-0.34 15.67 0.32 15.34 1 15 C0.67 10.05 0.34 5.1 0 0 Z " fill="#6D37A0" transform="translate(309,308)"/>
<path d="M0 0 C0.33 0 0.66 0 1 0 C1.09796875 0.65226562 1.1959375 1.30453125 1.296875 1.9765625 C2.27483811 7.69258825 3.51273404 11.38780954 7 16 C7.33 16.99 7.66 17.98 8 19 C4.26401391 18.06600348 3.04640522 17.06145556 0.6875 13.9375 C-1.48918064 9.76845442 -1.60367857 5.61170845 -1 1 C-0.67 0.67 -0.34 0.34 0 0 Z " fill="#68319E" transform="translate(137,367)"/>
<path d="M0 0 C0.66 0.99 1.32 1.98 2 3 C1.45472656 3.67482422 1.45472656 3.67482422 0.8984375 4.36328125 C-3.43099919 9.90273999 -6.76858171 15.76634203 -10 22 C-11.08850398 19.26593413 -11.09109244 18.22362166 -9.9609375 15.44921875 C-9.43757813 14.53785156 -8.91421875 13.62648437 -8.375 12.6875 C-7.82328125 11.72585937 -7.2715625 10.76421875 -6.703125 9.7734375 C-4.61833441 6.37848035 -2.40119446 3.1780515 0 0 Z " fill="#79459F" transform="translate(299,241)"/>
<path d="M0 0 C2.475 0.99 2.475 0.99 5 2 C5.33 4.64 5.66 7.28 6 10 C4.02 10 2.04 10 0 10 C-0.95024979 6.30458414 -0.95024979 3.69541586 0 0 Z " fill="#ECD4FB" transform="translate(301,165)"/>
<path d="M0 0 C1.61648437 0.04060547 1.61648437 0.04060547 3.265625 0.08203125 C4.08546875 0.11683594 4.9053125 0.15164063 5.75 0.1875 C5.42 1.1775 5.09 2.1675 4.75 3.1875 C2.76432292 2.89453125 0.77864583 2.6015625 -1.20703125 2.30859375 C-3.4525342 2.04845201 -3.4525342 2.04845201 -6.25 3.1875 C-7.27281518 5.28469872 -7.27281518 5.28469872 -7.9375 7.75 C-8.18886719 8.57628906 -8.44023437 9.40257812 -8.69921875 10.25390625 C-8.88097656 10.89199219 -9.06273437 11.53007812 -9.25 12.1875 C-9.91 11.5275 -10.57 10.8675 -11.25 10.1875 C-11.02440809 3.9837224 -11.02440809 3.9837224 -8.5859375 1.4765625 C-5.55937468 -0.19361431 -3.4347735 -0.11200348 0 0 Z " fill="#865BB0" transform="translate(183.25,355.8125)"/>
<path d="M0 0 C1.99665246 2.99497869 2.53460043 4.86206201 3.3125 8.3125 C4.62876978 13.42831141 6.28819639 16.28819639 10 20 C5.64284539 18.87958882 3.39326575 16.84100449 0.9375 13.21875 C-0.85374378 8.97947306 -0.36674344 4.50686936 0 0 Z " fill="#7C49AC" transform="translate(209,187)"/>
<path d="M0 0 C0.35729936 1.32711192 0.68325425 2.66262906 1 4 C1.22558594 4.91007813 1.45117188 5.82015625 1.68359375 6.7578125 C2.07520843 10.77065425 1.20064032 14.07383232 0.0625 17.875 C-0.13279297 18.56335938 -0.32808594 19.25171875 -0.52929688 19.9609375 C-1.00845074 21.64381938 -1.50269399 23.3223926 -2 25 C-2.33 25 -2.66 25 -3 25 C-3.55048791 16.33491247 -1.88081125 8.39647878 0 0 Z " fill="#7F4FAA" transform="translate(227,231)"/>
<path d="M0 0 C0.33 0.99 0.66 1.98 1 3 C1.66 3 2.32 3 3 3 C3 3.99 3 4.98 3 6 C6.3 6 9.6 6 13 6 C13 6.33 13 6.66 13 7 C12.04738281 7.06058594 11.09476563 7.12117187 10.11328125 7.18359375 C8.85902344 7.26738281 7.60476562 7.35117188 6.3125 7.4375 C5.07113281 7.51871094 3.82976562 7.59992188 2.55078125 7.68359375 C-1.26387858 7.95890835 -1.26387858 7.95890835 -6 9 C-4.02 6.03 -2.04 3.06 0 0 Z " fill="#E3C5F8" transform="translate(227,164)"/>
<path d="M0 0 C0.33 0 0.66 0 1 0 C1.37164821 5.82248856 0.37617945 10.64814628 -2 16 C-2.66 16.66 -3.32 17.32 -4 18 C-3.40546697 5.33029613 -3.40546697 5.33029613 0 0 Z " fill="#5E1E99" transform="translate(231,222)"/>
<path d="M0 0 C0.66 0.99 1.32 1.98 2 3 C-3.99718552 8.14044473 -8.22814367 9.50141009 -16 9 C-16.99 8.34 -17.98 7.68 -19 7 C-15.96075525 5.98691842 -14.26806645 6.01076222 -11.125 6.1875 C-7.38965642 6.23657751 -6.22962897 6.14058917 -2.9375 4.125 C-0.96324724 2.15328837 -0.96324724 2.15328837 0 0 Z " fill="#9471B5" transform="translate(163,379)"/>
<path d="M0 0 C0.33 0 0.66 0 1 0 C1 1.65 1 3.3 1 5 C-5.27 5 -11.54 5 -18 5 C-17.67 4.34 -17.34 3.68 -17 3 C-13.56528233 2.66857987 -10.17310556 2.53426597 -6.7265625 2.43359375 C-4.8138921 2.35418686 -2.90546809 2.18386096 -1 2 C-0.67 1.34 -0.34 0.68 0 0 Z " fill="#A78DBE" transform="translate(246,320)"/>
<path d="M0 0 C1.77007714 -0.08114106 3.54122098 -0.13925505 5.3125 -0.1875 C6.29863281 -0.22230469 7.28476563 -0.25710938 8.30078125 -0.29296875 C11 0 11 0 12.85546875 1.51171875 C13.23316406 2.00285156 13.61085937 2.49398438 14 3 C13.34 3.66 12.68 4.32 12 5 C12 4.34 12 3.68 12 3 C9.36 2.34 6.72 1.68 4 1 C4 5.62 4 10.24 4 15 C3.67 15 3.34 15 3 15 C3 10.38 3 5.76 3 1 C2.01 1.33 1.02 1.66 0 2 C0 1.34 0 0.68 0 0 Z " fill="#926CBA" transform="translate(115,356)"/>
<path d="M0 0 C2.28459758 2.28459758 2.97129748 4.12537344 4.125 7.125 C4.47820312 8.03507812 4.83140625 8.94515625 5.1953125 9.8828125 C5.46085938 10.58148438 5.72640625 11.28015625 6 12 C4.02 12 2.04 12 0 12 C-0.19573608 10.56359829 -0.38127816 9.12580496 -0.5625 7.6875 C-0.66691406 6.88699219 -0.77132812 6.08648437 -0.87890625 5.26171875 C-1 3 -1 3 0 0 Z " fill="#8255B1" transform="translate(195,313)"/>
<path d="M0 0 C0.99 0 1.98 0 3 0 C2.9278125 0.61488281 2.855625 1.22976562 2.78125 1.86328125 C2.6884375 2.67152344 2.595625 3.47976562 2.5 4.3125 C2.4071875 5.11300781 2.314375 5.91351563 2.21875 6.73828125 C1.95186537 9.11896555 1.95186537 9.11896555 2 12 C1.67 11.34 1.34 10.68 1 10 C0.01 10 -0.98 10 -2 10 C-1.125 2.25 -1.125 2.25 0 0 Z " fill="#692A9D" transform="translate(252,100)"/>
<path d="M0 0 C1.27118864 0.79109602 2.54193623 1.58290078 3.8125 2.375 C4.52019531 2.81585938 5.22789062 3.25671875 5.95703125 3.7109375 C7.65432039 4.78188476 9.33014358 5.88676239 11 7 C10.67 7.66 10.34 8.32 10 9 C8.53932801 8.54917531 7.08151968 8.08906463 5.625 7.625 C4.81289062 7.36976563 4.00078125 7.11453125 3.1640625 6.8515625 C1 6 1 6 -1 4 C-0.625 1.875 -0.625 1.875 0 0 Z " fill="#733EA8" transform="translate(175,365)"/>
<path d="M0 0 C0.99 0.33 1.98 0.66 3 1 C3.33 3.31 3.66 5.62 4 8 C2.02 8 0.04 8 -2 8 C-1.125 2.25 -1.125 2.25 0 0 Z " fill="#F8F5FA" transform="translate(186,301)"/>
<path d="M0 0 C0.66 0.33 1.32 0.66 2 1 C-1.625 4 -1.625 4 -5 4 C-5 4.66 -5 5.32 -5 6 C-5.82757813 5.76990234 -5.82757813 5.76990234 -6.671875 5.53515625 C-9.20317383 4.95329729 -11.66441972 4.67564555 -14.25 4.4375 C-15.14203125 4.35371094 -16.0340625 4.26992187 -16.953125 4.18359375 C-17.62859375 4.12300781 -18.3040625 4.06242188 -19 4 C-19 3.67 -19 3.34 -19 3 C-17.87980469 2.86722656 -16.75960938 2.73445312 -15.60546875 2.59765625 C-14.13279271 2.41943431 -12.66013753 2.24103989 -11.1875 2.0625 C-10.44951172 1.97548828 -9.71152344 1.88847656 -8.95117188 1.79882812 C-5.83266879 1.41783454 -2.98891878 0.99630626 0 0 Z " fill="#8153AA" transform="translate(279,136)"/>
<path d="M0 0 C1.32 0 2.64 0 4 0 C4 1.32 4 2.64 4 4 C3.01 4 2.02 4 1 4 C1 4.99 1 5.98 1 7 C-0.65 7 -2.3 7 -4 7 C-4 5.68 -4 4.36 -4 3 C-3.01 3 -2.02 3 -1 3 C-0.67 2.01 -0.34 1.02 0 0 Z " fill="#C4A5DC" transform="translate(278,237)"/>
<path d="M0 0 C0.33 0 0.66 0 1 0 C1 5.28 1 10.56 1 16 C-0.32 16 -1.64 16 -3 16 C-2.88590318 13.89521396 -2.75834639 11.79115423 -2.625 9.6875 C-2.55539062 8.51574219 -2.48578125 7.34398437 -2.4140625 6.13671875 C-2 3 -2 3 0 0 Z " fill="#794CA4" transform="translate(342,372)"/>
<path d="M0 0 C1.2065625 0.0309375 1.2065625 0.0309375 2.4375 0.0625 C2.4375 1.7125 2.4375 3.3625 2.4375 5.0625 C0.7875 5.3925 -0.8625 5.7225 -2.5625 6.0625 C-2.94468767 4.40635343 -3.27645102 2.73792976 -3.5625 1.0625 C-2.5625 0.0625 -2.5625 0.0625 0 0 Z " fill="#6B329D" transform="translate(294.5625,208.9375)"/>
<path d="M0 0 C0.66 0 1.32 0 2 0 C0.6302836 3.99500618 -1.25722422 6.80009492 -4 10 C-3.67 10.66 -3.34 11.32 -3 12 C-4.65 11.67 -6.3 11.34 -8 11 C-6.76163579 7.28490737 -4.77895064 5.71117136 -2 3 C-1.34 2.01 -0.68 1.02 0 0 Z " fill="#7D4EA8" transform="translate(226,162)"/>
<path d="M0 0 C1.05445313 0.00644531 2.10890625 0.01289063 3.1953125 0.01953125 C5.875 0.1875 5.875 0.1875 7.875 1.1875 C7.875 2.1775 7.875 3.1675 7.875 4.1875 C7.00875 3.8575 6.1425 3.5275 5.25 3.1875 C-0.17068358 1.58137153 -4.01013948 1.78050682 -9.125 4.1875 C-9.455 3.5275 -9.785 2.8675 -10.125 2.1875 C-6.68826187 0.08727114 -3.98883187 -0.05390313 0 0 Z " fill="#9676B9" transform="translate(324.125,355.8125)"/>
<path d="M0 0 C1.67542976 0.28604898 3.34385343 0.61781233 5 1 C4.67 2.65 4.34 4.3 4 6 C2.35 6 0.7 6 -1 6 C-1.042721 4.33388095 -1.04063832 2.66617115 -1 1 C-0.67 0.67 -0.34 0.34 0 0 Z " fill="#692E9C" transform="translate(274,244)"/>
<path d="M0 0 C1.65 0.33 3.3 0.66 5 1 C4.67 2.65 4.34 4.3 4 6 C2.35 5.67 0.7 5.34 -1 5 C-0.67 3.35 -0.34 1.7 0 0 Z " fill="#662F9C" transform="translate(302,174)"/>
<path d="M0 0 C1.65 0.33 3.3 0.66 5 1 C4.67 2.65 4.34 4.3 4 6 C2.35 5.67 0.7 5.34 -1 5 C-0.67 3.35 -0.34 1.7 0 0 Z " fill="#67309C" transform="translate(301,157)"/>
<path d="M0 0 C1.4540625 0.0309375 1.4540625 0.0309375 2.9375 0.0625 C3.2675 1.0525 3.5975 2.0425 3.9375 3.0625 C3.6075 3.7225 3.2775 4.3825 2.9375 5.0625 C1.2875 5.0625 -0.3625 5.0625 -2.0625 5.0625 C-2.7225 3.7425 -3.3825 2.4225 -4.0625 1.0625 C-3.0625 0.0625 -3.0625 0.0625 0 0 Z " fill="#BA95D3" transform="translate(291.0625,217.9375)"/>
<path d="M0 0 C2.0625 0.4375 2.0625 0.4375 4 1 C4.5625 2.9375 4.5625 2.9375 5 5 C4 6 4 6 1.4375 6.0625 C0.2309375 6.0315625 0.2309375 6.0315625 -1 6 C-1.042721 4.33388095 -1.04063832 2.66617115 -1 1 C-0.67 0.67 -0.34 0.34 0 0 Z " fill="#672B9A" transform="translate(300,192)"/>
<path d="M0 0 C0.66 0.33 1.32 0.66 2 1 C-0.28431738 3.35800504 -2.0081024 4.88720897 -5.3359375 5.265625 C-7.56920205 5.251535 -9.77382441 5.17460201 -12 5 C-12.33 3.68 -12.66 2.36 -13 1 C-12.01 1.495 -12.01 1.495 -11 2 C-9.50350638 2.12005453 -8.00125207 2.17531451 -6.5 2.1875 C-5.7059375 2.20167969 -4.911875 2.21585937 -4.09375 2.23046875 C-1.77966683 2.19666303 -1.77966683 2.19666303 0 0 Z " fill="#9876B9" transform="translate(236,383)"/>
<path d="M0 0 C1.0528418 0.01353516 1.0528418 0.01353516 2.12695312 0.02734375 C3.85561525 0.05086296 5.58410145 0.08673287 7.3125 0.125 C6.9825 1.445 6.6525 2.765 6.3125 4.125 C5.3225 3.465 4.3325 2.805 3.3125 2.125 C-1.64495506 1.80516419 -5.16788922 1.86519461 -9.6875 4.125 C-10.0175 3.465 -10.3475 2.805 -10.6875 2.125 C-7.00662647 -0.32891569 -4.24394412 -0.10302759 0 0 Z " fill="#8E6EB3" transform="translate(304.6875,292.875)"/>
<path d="M0 0 C2.475 0.495 2.475 0.495 5 1 C5.66 3.31 6.32 5.62 7 8 C4.625 7.75 4.625 7.75 2 7 C0.2058242 4.43689172 0 3.16880694 0 0 Z " fill="#CBB4DF" transform="translate(296,134)"/>
<path d="M0 0 C4.79280002 0.80904103 6.13520113 3.25984591 9 7 C8.34 8.32 7.68 9.64 7 11 C6.773125 10.484375 6.54625 9.96875 6.3125 9.4375 C4.5024447 6.07596873 2.26003596 3.07088856 0 0 Z " fill="#703DA1" transform="translate(158,358)"/>
<path d="M0 0 C0.66 0 1.32 0 2 0 C1.16095275 5.73348951 0.24799283 11.12801076 -3 16 C-3.33266291 9.79029227 -2.45029331 5.71735105 0 0 Z " fill="#E0C2F4" transform="translate(230,215)"/>
<path d="M0 0 C2.0625 0.4375 2.0625 0.4375 4 1 C4 2.65 4 4.3 4 6 C2.35 6 0.7 6 -1 6 C-1.042721 4.33388095 -1.04063832 2.66617115 -1 1 C-0.67 0.67 -0.34 0.34 0 0 Z " fill="#602596" transform="translate(283,226)"/>
<path d="M0 0 C1.65 0 3.3 0 5 0 C5 1.98 5 3.96 5 6 C3.68 6 2.36 6 1 6 C0.67 4.02 0.34 2.04 0 0 Z " fill="#B38FCF" transform="translate(300,184)"/>
<path d="M0 0 C0.99 0 1.98 0 3 0 C3.29296875 5.95703125 3.29296875 5.95703125 3 8 C2.01 8.99 1.02 9.98 0 11 C0 7.37 0 3.74 0 0 Z " fill="#FAF1FB" transform="translate(333,176)"/>
<path d="M0 0 C1.32 0 2.64 0 4 0 C4.33 1.98 4.66 3.96 5 6 C4.38125 6.103125 3.7625 6.20625 3.125 6.3125 C0.63473516 6.87525373 0.63473516 6.87525373 -1 10 C-0.67 6.7 -0.34 3.4 0 0 Z " fill="#C2A4DC" transform="translate(300,151)"/>
<path d="M0 0 C0.33 1.32 0.66 2.64 1 4 C-5.27 4 -11.54 4 -18 4 C-17.67 3.34 -17.34 2.68 -17 2 C-15.41058594 2.03480469 -15.41058594 2.03480469 -13.7890625 2.0703125 C-12.4010487 2.08906944 -11.0130273 2.10726972 -9.625 2.125 C-8.92632812 2.14175781 -8.22765625 2.15851563 -7.5078125 2.17578125 C-5.67102514 2.19344267 -3.83398037 2.10303261 -2 2 C-1.34 1.34 -0.68 0.68 0 0 Z " fill="#8C6AB2" transform="translate(386,384)"/>
<path d="M0 0 C0.33 1.32 0.66 2.64 1 4 C-5.27 4 -11.54 4 -18 4 C-17.67 3.34 -17.34 2.68 -17 2 C-15.41058594 2.03480469 -15.41058594 2.03480469 -13.7890625 2.0703125 C-12.4010487 2.08906944 -11.0130273 2.10726972 -9.625 2.125 C-8.92632812 2.14175781 -8.22765625 2.15851563 -7.5078125 2.17578125 C-5.67102514 2.19344267 -3.83398037 2.10303261 -2 2 C-1.34 1.34 -0.68 0.68 0 0 Z " fill="#8966AE" transform="translate(290,384)"/>
<path d="M0 0 C0.99 0 1.98 0 3 0 C7 5.14285714 7 5.14285714 7 9 C3.17475764 7.549046 1.80909034 5.61818068 0 2 C0 1.34 0 0.68 0 0 Z " fill="#662B9F" transform="translate(253,371)"/>
<path d="M0 0 C-1.12451727 2.9719385 -2.22293791 5.33440687 -4 8 C-4.99 8 -5.98 8 -7 8 C-6.44414399 4.1090079 -4.34122117 0 0 0 Z " fill="#632C97" transform="translate(317,220)"/>
<path d="M0 0 C0.33 0.99 0.66 1.98 1 3 C-3.64849515 5.3992233 -7.91086074 5.19957409 -13 5 C-10.2173829 2.2173829 -7.89667775 2.59069336 -4.09375 2.34375 C-1.78487741 2.17368193 -1.78487741 2.17368193 0 0 Z " fill="#9272B6" transform="translate(414,383)"/>
<path d="M0 0 C0.33 0.99 0.66 1.98 1 3 C-3.64849515 5.3992233 -7.91086074 5.19957409 -13 5 C-10.2173829 2.2173829 -7.89667775 2.59069336 -4.09375 2.34375 C-1.78487741 2.17368193 -1.78487741 2.17368193 0 0 Z " fill="#9876B7" transform="translate(332,383)"/>
<path d="M0 0 C0.99 0.33 1.98 0.66 3 1 C2.21625 1.7425 1.4325 2.485 0.625 3.25 C-1.56504531 5.54433318 -2.82731386 7.12158858 -4 10 C-4.66 9.67 -5.32 9.34 -6 9 C-4.68775452 5.06326356 -3.08089673 2.77280706 0 0 Z " fill="#8254A8" transform="translate(396,358)"/>
<path d="M0 0 C0.66 0.33 1.32 0.66 2 1 C1.01 4.96 0.02 8.92 -1 13 C-2.32 12.67 -3.64 12.34 -5 12 C-3.35 8.04 -1.7 4.08 0 0 Z " fill="#9778B6" transform="translate(180,312)"/>
<path d="M0 0 C0.33 0 0.66 0 1 0 C0.67 3.63 0.34 7.26 0 11 C-0.66 9.68 -1.32 8.36 -2 7 C-2.66 7.99 -3.32 8.98 -4 10 C-3.47731534 7.23723823 -2.89130413 4.6739124 -2 2 C-1.34 2 -0.68 2 0 2 C0 1.34 0 0.68 0 0 Z " fill="#7036A1" transform="translate(233,216)"/>
<path d="M0 0 C1.485 0.99 1.485 0.99 3 2 C5.0179789 2.37847045 5.0179789 2.37847045 7.125 2.5 C8.40375 2.665 9.6825 2.83 11 3 C11.33 3.66 11.66 4.32 12 5 C3.42857143 5.28571429 3.42857143 5.28571429 0 3 C0 2.01 0 1.02 0 0 Z " fill="#9C7EBF" transform="translate(173,383)"/>
<path d="M0 0 C1.11375 0.556875 1.11375 0.556875 2.25 1.125 C2.25 3.96467231 1.84732819 6.36235711 1.25 9.125 C0.92 9.125 0.59 9.125 0.25 9.125 C-0.41 6.815 -1.07 4.505 -1.75 2.125 C-3.4 1.795 -5.05 1.465 -6.75 1.125 C-4.02098495 -0.69434337 -3.21400584 -1.02263822 0 0 Z " fill="#8A66B2" transform="translate(259.75,356.875)"/>
<path d="M0 0 C0.33 0 0.66 0 1 0 C1 5.61 1 11.22 1 17 C-0.32 17 -1.64 17 -3 17 C-3 16.34 -3 15.68 -3 15 C-2.34 14.67 -1.68 14.34 -1 14 C-0.52998967 10.72444392 -0.52998967 10.72444392 -0.375 6.9375 C-0.30023438 5.64714844 -0.22546875 4.35679687 -0.1484375 3.02734375 C-0.09945313 2.02832031 -0.05046875 1.02929688 0 0 Z " fill="#9476B4" transform="translate(324,308)"/>
<path d="M0 0 C0.66 0 1.32 0 2 0 C2.66 2.31 3.32 4.62 4 7 C3.01 7.33 2.02 7.66 1 8 C1 7.34 1 6.68 1 6 C0.34 6 -0.32 6 -1 6 C-0.67 4.02 -0.34 2.04 0 0 Z " fill="#7C4BAD" transform="translate(187,294)"/>
<path d="M0 0 C0.66 0.99 1.32 1.98 2 3 C0.68 5.31 -0.64 7.62 -2 10 C-2.66 9.67 -3.32 9.34 -4 9 C-2.80100302 5.9168649 -1.52299523 2.93720508 0 0 Z " fill="#E5CCF4" transform="translate(326,206)"/>
<path d="M0 0 C4.875 4.75 4.875 4.75 6 7 C3.6875 6.8125 3.6875 6.8125 1 6 C-0.8125 3.4375 -0.8125 3.4375 -2 1 C-1.34 0.67 -0.68 0.34 0 0 Z " fill="#7B4FA8" transform="translate(436,381)"/>
<path d="M0 0 C0.66 0.33 1.32 0.66 2 1 C2 1.66 2 2.32 2 3 C2.78375 3.28875 3.5675 3.5775 4.375 3.875 C7 5 7 5 9 7 C4.2482602 6.56802365 2.07999946 5.67230705 -1 2 C-0.67 1.34 -0.34 0.68 0 0 Z " fill="#7446A2" transform="translate(312,380)"/>
<path d="M0 0 C0.66 0.99 1.32 1.98 2 3 C0.35 5.97 -1.3 8.94 -3 12 C-4.07156762 7.71372952 -4.0365854 7.33924618 -2.0625 3.75 C-1.68222656 3.04359375 -1.30195313 2.3371875 -0.91015625 1.609375 C-0.60980469 1.07828125 -0.30945313 0.5471875 0 0 Z " fill="#9B78B9" transform="translate(292,251)"/>
<path d="M0 0 C0.33 0.99 0.66 1.98 1 3 C0.67 3.66 0.34 4.32 0 5 C-0.66 5 -1.32 5 -2 5 C-2.66 6.65 -3.32 8.3 -4 10 C-4.99 10 -5.98 10 -7 10 C-3.535 5.05 -3.535 5.05 0 0 Z " fill="#E1C8F3" transform="translate(307,234)"/>
<path d="M0 0 C0.33 0.99 0.66 1.98 1 3 C-0.21484375 4.82421875 -0.21484375 4.82421875 -1.9375 6.6875 C-2.50339844 7.31011719 -3.06929688 7.93273437 -3.65234375 8.57421875 C-4.09707031 9.04472656 -4.54179687 9.51523438 -5 10 C-5.66 9.67 -6.32 9.34 -7 9 C-4.69 6.03 -2.38 3.06 0 0 Z " fill="#E3C5F1" transform="translate(315,224)"/>
<path d="M0 0 C3.96 0.33 7.92 0.66 12 1 C8.91111478 3.05925681 8.29064073 3.2390374 4.8125 3.125 C2.9253125 3.063125 2.9253125 3.063125 1 3 C0.67 2.01 0.34 1.02 0 0 Z " fill="#69349C" transform="translate(257,127)"/>
<path d="M0 0 C0.66 0.33 1.32 0.66 2 1 C1.54625 1.5775 1.0925 2.155 0.625 2.75 C-0.84113516 4.7800333 -1.94857784 6.73539843 -3 9 C-3.66 8.67 -4.32 8.34 -5 8 C-3.8141763 4.62496331 -2.72426311 2.35277269 0 0 Z " fill="#7748A5" transform="translate(293,296)"/>
<path d="M0 0 C1.4540625 0.0309375 1.4540625 0.0309375 2.9375 0.0625 C-2.20535714 4.49107143 -2.20535714 4.49107143 -6.0625 5.0625 C-3.64893617 0.07446809 -3.64893617 0.07446809 0 0 Z " fill="#D9BBF3" transform="translate(241.0625,142.9375)"/>
<path d="M0 0 C1.32 0 2.64 0 4 0 C4 0.66 4 1.32 4 2 C3.34 2 2.68 2 2 2 C2 5.96 2 9.92 2 14 C1.67 14 1.34 14 1 14 C0.67 9.38 0.34 4.76 0 0 Z " fill="#60229A" transform="translate(358,356)"/>
<path d="M0 0 C1.65 0 3.3 0 5 0 C4.67 0.66 4.34 1.32 4 2 C3.77141886 4.0374763 3.58975722 6.08040303 3.4375 8.125 C3.35371094 9.22070312 3.26992187 10.31640625 3.18359375 11.4453125 C3.12300781 12.28835938 3.06242188 13.13140625 3 14 C2.67 14 2.34 14 2 14 C1.93941406 13.15695312 1.87882813 12.31390625 1.81640625 11.4453125 C1.73261719 10.34960938 1.64882812 9.25390625 1.5625 8.125 C1.48128906 7.03445313 1.40007812 5.94390625 1.31640625 4.8203125 C1.16998297 2.05271029 1.16998297 2.05271029 0 0 Z " fill="#611D9C" transform="translate(218,356)"/>
<path d="M0 0 C0.99 0 1.98 0 3 0 C5.1875 3 5.1875 3 7 6 C4.625 5.8125 4.625 5.8125 2 5 C0.6875 2.4375 0.6875 2.4375 0 0 Z " fill="#7850A4" transform="translate(265,319)"/>
<path d="M0 0 C1.41687119 4.25061356 0.19320039 6.71851625 -1 11 C-3 8 -3 8 -2.75 5.5 C-2 3 -2 3 0 0 Z " fill="#885FB3" transform="translate(239,199)"/>
<path d="M0 0 C2.475 0.99 2.475 0.99 5 2 C5 2.99 5 3.98 5 5 C3.35 5 1.7 5 0 5 C0 3.35 0 1.7 0 0 Z " fill="#9F7AC2" transform="translate(301,165)"/>
<path d="M0 0 C2.46800047 1.15173355 4.04783565 2.04783565 6 4 C5.625 6.125 5.625 6.125 5 8 C0 2.25 0 2.25 0 0 Z " fill="#632D91" transform="translate(317,149)"/>
<path d="M0 0 C0.66 0.99 1.32 1.98 2 3 C0.02 5.97 0.02 5.97 -2 9 C-2.6875 7.3125 -2.6875 7.3125 -3 5 C-1.5625 2.25 -1.5625 2.25 0 0 Z " fill="#8258AE" transform="translate(234,143)"/>
<path d="M0 0 C0.99 0.33 1.98 0.66 3 1 C3 3.31 3 5.62 3 8 C2.01 8.495 2.01 8.495 1 9 C0.67 6.03 0.34 3.06 0 0 Z " fill="#6A32A1" transform="translate(128,359)"/>
<path d="M0 0 C3 2 3 2 3.6875 5.125 C3.8421875 6.548125 3.8421875 6.548125 4 8 C3.34 8 2.68 8 2 8 C-0.1519437 4.77208445 -0.20086443 3.71599191 0 0 Z " fill="#6832A0" transform="translate(189,300)"/>
<path d="M0 0 C2.38672669 2.96283313 4.7353371 5.94270509 7 9 C3.15314615 7.75237172 0.97070595 6.6129609 -1 3 C-0.67 2.01 -0.34 1.02 0 0 Z " fill="#8A60AE" transform="translate(212,198)"/>
<path d="M0 0 C0.66 0 1.32 0 2 0 C2.25 6.625 2.25 6.625 0 10 C-1.32 8.68 -2.64 7.36 -4 6 C-2.68 5.67 -1.36 5.34 0 5 C0 3.35 0 1.7 0 0 Z " fill="#DBBEEF" transform="translate(305,157)"/>
<path d="M0 0 C1.32 1.32 2.64 2.64 4 4 C3 6 3 6 2 7 C1.67 7.66 1.34 8.32 1 9 C-1.125 3.375 -1.125 3.375 0 0 Z " fill="#8857B2" transform="translate(323,154)"/>
<path d="M0 0 C0.66 0.33 1.32 0.66 2 1 C2.1875 3.875 2.1875 3.875 2 7 C1.01 7.66 0.02 8.32 -1 9 C-0.67 6.03 -0.34 3.06 0 0 Z " fill="#591A99" transform="translate(261,360)"/>
<path d="M0 0 C0.66 0.33 1.32 0.66 2 1 C1.67 2.98 1.34 4.96 1 7 C-2 5 -2 5 -3 2 C-2.01 1.34 -1.02 0.68 0 0 Z " fill="#E2D6F3" transform="translate(220,202)"/>
<path d="M0 0 C0.33 0 0.66 0 1 0 C1.25 5.625 1.25 5.625 -1 9 C-1.66 9 -2.32 9 -3 9 C-2.01 6.03 -1.02 3.06 0 0 Z " fill="#7940AB" transform="translate(325,198)"/>
<path d="M0 0 C0.88935377 3.303314 1.46274105 6.62294375 2 10 C0.68 9.01 -0.64 8.02 -2 7 C-1.34 4.69 -0.68 2.38 0 0 Z " fill="#D3B0F0" transform="translate(255,102)"/>
</svg>
